<svg width="19.503265" height="19.503418" viewBox="0 0 19.5033 19.5034" fill="none" xmlns="http://www.w3.org/2000/svg" xmlns:xlink="http://www.w3.org/1999/xlink">
	<defs/>
	<path d="M18.75 18.75L14.4 14.4M16.14 11.81C16.54 10.84 16.75 9.8 16.75 8.75C16.75 7.69 16.54 6.65 16.14 5.68C15.73 4.71 15.15 3.83 14.4 3.09C13.66 2.35 12.78 1.76 11.81 1.35C10.84 0.95 9.8 0.75 8.75 0.75C7.69 0.75 6.65 0.95 5.68 1.35C4.71 1.76 3.83 2.35 3.09 3.09C1.59 4.59 0.75 6.62 0.75 8.75C0.75 10.87 1.59 12.9 3.09 14.4C4.59 15.9 6.62 16.75 8.75 16.75C10.87 16.75 12.9 15.9 14.4 14.4C15.15 13.66 15.73 12.78 16.14 11.81ZM8.75 5.75L8.75 11.75M5.75 8.75L11.75 8.75" stroke="#FFFFFF" stroke-opacity="1.000000" stroke-width="1.500000" stroke-linejoin="round"/>
</svg>
